<svg width="44" height="44" viewBox="0 0 44 44" fill="none" xmlns="http://www.w3.org/2000/svg">
  <rect width="44" height="44" rx="12" fill="#EAF4FF"/>
  <path d="M21.9 12.5C22.4 10.2 24.0 8.6 26.3 8.2C29.3 7.7 32 9.7 32.5 12.7C32.9 15.7 30.8 18.4 27.8 18.8C25.5 19.1 23.4 17.0 23.1 14.7C23.0 14.0 21.3 13.4 21.9 12.5ZM14.0 21.3C13.3 18.9 15.1 16.5 17.5 16.1C19.8 15.7 22.0 17.7 22.4 20.1C22.7 22.4 20.7 24.5 18.3 24.9C16.0 25.3 13.9 23.3 14.0 21.3ZM22.3 31.1C21.8 33.4 20.2 35.0 17.9 35.4C14.9 35.9 12.2 33.9 11.7 30.9C11.3 28.0 13.4 25.3 16.4 24.9C18.7 24.5 20.8 26.6 21.2 28.9C21.3 29.6 23.0 30.2 22.3 31.1ZM30.2 22.3C30.9 24.7 29.1 27.1 26.7 27.5C24.4 27.9 22.2 25.9 21.8 23.5C21.5 21.2 23.5 19.1 25.9 18.7C28.2 18.3 30.3 20.3 30.2 22.3Z" fill="#2962FF"/>
</svg>
